Coordinates
version=1
nRows=16
nColumns=33
inDegrees=yes

Units are S.I. units (second, meters, Newtons, ...)
Angles are in degrees.

endheader
time	ground_thorax_rot_x	ground_thorax_rot_y	ground_thorax_rot_z	ground_thorax_tx	ground_thorax_ty	ground_thorax_tz	clav_prot_r	clav_elev_r	scapula_abduction_r	scapula_elevation_r	scapula_upward_rot_r	scapula_winging_r	shoulder_elv_r	plane_of_elev_r	axial_rot_r	elbow_flexion_r	pro_sup_r	wrist_flex_r	wrist_dev_r	clav_prot_l	clav_elev_l	scapula_abduction_l	scapula_elevation_l	scapula_upward_rot_l	scapula_winging_l	shoulder_elv_l	plane_of_elev_l	axial_rot_l	elbow_flexion_l	pro_sup_l	wrist_flex_l	wrist_dev_l
     10.41000000	    -13.06041181	    -34.31973533	     62.06502331	     22.03506120	    788.82331239	    -25.71327410	     30.33147142	    -45.00000000	     39.90228163	    -45.00000000	    -45.00000000	  -2623.82006567	  -3887.42785004	     19.29379516	   -139.18845298	   1800.54051119	   -183.85434167	     11.01236363	     12.31966648	     -3.76754616	     29.99970211	    -24.57345036	    -45.00000000	    -45.00000000	  -2079.37928942	  -2446.13285778	     26.07030943	     50.75846701	   1426.14480323	     39.20722063	     11.93875219	    -14.35587048
     10.42000000	    -13.06782546	    -34.29130821	     62.05163607	     22.03469597	    788.82323183	    -25.71368056	     30.32777180	    -45.00000000	     39.90659096	    -45.00000000	    -45.00000000	  -2623.82088973	  -3887.42046754	     19.29557423	   -139.18660055	   1800.54743688	   -183.85592799	     11.01167154	     12.31962322	     -3.76863044	     30.00039856	    -24.56213397	    -45.00000000	    -45.00000000	  -2079.35700755	  -2446.11671096	     26.05706098	     50.75510001	   1426.14840882	     39.20622934	     11.93747109	    -14.35153257
     10.43000000	    -13.58061311	    -34.17773476	     61.52033509	     21.92051493	    788.81029620	    -25.79741107	     29.97597206	    -45.00000000	     39.55893498	    -45.00000000	    -45.00000000	  -2623.71429081	  -3887.54883746	     19.44677178	   -139.11261695	   1800.65437441	   -184.05627412	     11.02372341	     12.30711904	     -3.85503457	     30.06434445	    -24.59545561	    -45.00000000	    -45.00000000	  -2079.48104490	  -2445.95467843	     26.26737040	     50.73732095	   1426.33395807	     39.13712721	     12.06454208	    -14.11381719
     10.44000000	    -13.26680783	    -34.27050852	     61.90298608	     21.78712370	    788.80803588	    -25.85441673	     29.95542279	    -45.00000000	     39.87342261	    -45.00000000	    -45.00000000	  -2623.67252441	  -3887.42887528	     19.20980695	   -139.29842251	   1800.62062361	   -184.27024230	     10.85726377	     12.32157495	     -3.47723249	     29.95920498	    -24.74379786	    -45.00000000	    -45.00000000	  -2079.33543334	  -2445.98362243	     25.97193104	     50.86190602	   1426.07244287	     39.04573550	     11.84415476	    -14.35971033
     10.45000000	    -13.54017836	    -34.12602193	     61.57004610	     21.60923612	    788.80904745	    -25.91573701	     30.03593547	    -45.00000000	     39.69261672	    -45.00000000	    -45.00000000	  -2623.73992643	  -3887.45666761	     19.40174517	   -139.14618071	   1800.66638178	   -184.46172191	     10.95953940	     12.29455077	     -3.90307233	     30.03619877	    -24.78726678	    -45.00000000	    -45.00000000	  -2079.34634967	  -2446.03997849	     26.13072005	     50.79467540	   1426.30527312	     38.97503328	     12.14093442	    -14.12677007
     10.46000000	    -13.39173074	    -34.17187573	     61.75338940	     21.39054247	    788.81268421	    -25.98331241	     29.92501506	    -45.00000000	     39.81078617	    -45.00000000	    -45.00000000	  -2623.70600934	  -3887.37892243	     19.28467612	   -139.29558938	   1800.65359637	   -184.65037561	     10.77251968	     12.29431332	     -3.45463915	     29.99671725	    -24.67592822	    -45.00000000	    -45.00000000	  -2079.39000683	  -2445.98391051	     26.03020602	     50.67901657	   1426.13513784	     38.88846986	     11.80808781	    -14.33283375
     10.47000000	    -15.87918484	    -34.89700727	     61.52656267	     23.78693276	    778.86092161	    -39.32440280	     29.51221001	    -45.00000000	     39.33527327	    -45.00000000	    -45.00000000	  -2623.28251238	  -3887.22394099	     18.98606406	   -138.66257206	   1800.60159463	   -184.85742355	     10.88386828	     12.57750587	     -1.78605214	     30.16919236	    -25.65097558	    -45.00000000	    -45.00000000	  -2077.91710604	  -2445.04402627	     26.32343189	     48.98415947	   1428.59338575	     42.03308004	     13.16880196	    -13.96247477
     10.48000000	    -15.95366037	    -34.97934030	     61.56984524	     23.79830901	    778.77805224	    -39.38682802	     29.96306544	    -45.00000000	     39.21992550	    -45.00000000	    -45.00000000	  -2623.17284508	  -3887.17608986	     18.91345433	   -138.47027144	   1800.68897967	   -185.08027829	     10.87496184	     12.50964342	     -1.92902291	     30.45543786	    -26.02981325	    -45.00000000	    -45.00000000	  -2077.69955824	  -2445.29514007	     26.15824465	     49.03419000	   1428.81706948	     42.91734023	     12.83185088	    -13.70695171
     10.49000000	    -15.90742431	    -35.04802562	     61.60051637	     23.65345368	    778.71748943	    -39.48321967	     29.64110603	    -45.00000000	     39.38203689	    -45.00000000	    -45.00000000	  -2623.29173148	  -3887.22007528	     18.95990361	   -138.59639310	   1800.68301382	   -185.36820960	     10.76466518	     12.59419700	     -1.74394512	     30.18601961	    -25.73393055	    -45.00000000	    -45.00000000	  -2077.74752330	  -2445.06607584	     26.33552292	     49.16136489	   1428.79013631	     43.44081580	     12.82300692	    -14.09259108
     10.50000000	    -16.12004337	    -34.97013699	     61.34026916	     23.37348771	    778.69926781	    -39.59038160	     29.86378250	    -45.00000000	     39.25975144	    -45.00000000	    -45.00000000	  -2623.21208431	  -3887.14577178	     18.97876021	   -138.55014496	   1800.65954970	   -185.58533141	     10.79451874	     12.54813811	     -1.86008922	     30.46258322	    -25.94781289	    -45.00000000	    -45.00000000	  -2077.72007300	  -2445.18463473	     26.37283159	     49.23575658	   1428.87718594	     43.73809805	     12.49490896	    -13.63820099
     10.51000000	    -16.00787561	    -34.98278131	     61.48940158	     22.99187255	    778.71158881	    -39.70792223	     29.59361314	    -45.00000000	     39.43811568	    -45.00000000	    -45.00000000	  -2623.32460195	  -3887.11528247	     18.97900253	   -138.83892957	   1800.65729082	   -185.80754231	     10.68151222	     12.62483340	     -1.55412787	     30.14124707	    -25.77710965	    -45.00000000	    -45.00000000	  -2077.67383777	  -2444.98602217	     26.45136200	     49.26793424	   1428.66238165	     43.76276298	     12.71053089	    -14.24120225
     10.52000000	    -16.21392887	    -34.96736769	     61.30547475	     22.52811587	    778.75077442	    -39.83260871	     29.78064012	    -45.00000000	     39.30696705	    -45.00000000	    -45.00000000	  -2623.24582757	  -3887.09321069	     18.96228899	   -138.83508674	   1800.59781772	   -186.00019188	     10.75035203	     12.58127339	     -1.71276489	     30.39589657	    -25.98191235	    -45.00000000	    -45.00000000	  -2077.50348321	  -2445.05403780	     26.45996516	     49.25591513	   1428.81823314	     43.79633077	     12.47043017	    -13.74382563
     10.53000000	    -16.33425786	    -34.85225518	     61.14942979	     22.02011296	    778.81248112	    -39.95465786	     29.71039639	    -45.00000000	     39.29699329	    -45.00000000	    -45.00000000	  -2623.37391440	  -3887.11208463	     19.15644469	   -139.05381265	   1800.68353455	   -186.17853858	     10.63000592	     12.60702112	     -1.74295390	     30.35077468	    -25.97720224	    -45.00000000	    -45.00000000	  -2077.75461752	  -2444.98659424	     26.28773072	     49.13258656	   1428.92103036	     43.69496610	     12.16089703	    -13.97198943
     10.54000000	    -16.35412041	    -34.91625260	     61.14718516	     21.43442885	    778.90697040	    -40.07463107	     29.71085792	    -45.00000000	     39.37134015	    -45.00000000	    -45.00000000	  -2623.15999824	  -3887.00452199	     18.96870571	   -139.13384967	   1800.66865347	   -186.33316343	     10.72747344	     12.58913354	     -1.61818323	     30.42463070	    -26.11552119	    -45.00000000	    -45.00000000	  -2077.19036567	  -2445.03908945	     26.59387333	     49.33382049	   1428.85632882	     43.70069171	     12.43065180	    -13.65486814
     10.55000000	    -16.48869910	    -34.81780058	     61.07839082	     20.78197652	    779.03634449	    -40.18748742	     29.70167516	    -45.00000000	     39.35247949	    -45.00000000	    -45.00000000	  -2623.34182021	  -3887.04400046	     19.08884711	   -139.36314109	   1800.72028930	   -186.52068749	     10.61147085	     12.61062262	     -1.63611623	     30.35936937	    -26.17028530	    -45.00000000	    -45.00000000	  -2077.44960430	  -2444.87490633	     26.31791028	     49.11242248	   1428.94313553	     43.58180097	     12.12206242	    -13.97717967
     10.56000000	    -16.73981838	    -34.69624012	     60.70451105	     20.06202273	    779.20496890	    -40.28990214	     29.76617684	    -45.00000000	     39.31744325	    -45.00000000	    -45.00000000	  -2623.34281888	  -3886.94914919	     19.19778924	   -139.49309331	   1800.60527434	   -186.67374304	     10.67747445	     12.66947372	     -1.69780328	     30.57573469	    -26.19991710	    -45.00000000	    -45.00000000	  -2077.22377710	  -2444.96627777	     26.67328478	     49.15447646	   1429.03004394	     43.58566518	     12.06626223	    -13.75731780
